<?xml version="1.0" standalone="no"?>
<!DOCTYPE svg PUBLIC "-//W3C//DTD SVG 20010904//EN"
 "http://www.w3.org/TR/2001/REC-SVG-20010904/DTD/svg10.dtd">
<svg version="1.0" xmlns="http://www.w3.org/2000/svg"
 width="500.000000pt" height="500.000000pt" viewBox="0 0 500.000000 500.000000"
 preserveAspectRatio="xMidYMid meet">
<metadata>
Created by potrace 1.14, written by Peter Selinger 2001-2017
</metadata>
<g transform="translate(0.000000,500.000000) scale(0.100000,-0.100000)"
fill="#000000" stroke="none">
<path d="M728 4151 l-33 -29 -5 -419 c-3 -230 -3 -957 0 -1615 l5 -1198 33
-32 32 -33 1731 -3 c1912 -2 1768 -7 1809 61 20 31 20 63 20 1614 0 1019 -4
1591 -10 1608 -5 14 -22 37 -36 50 l-27 25 -1743 0 -1744 0 -32 -29z m3332
-481 l0 -260 -1560 0 -1560 0 0 253 c0 140 3 257 7 260 3 4 705 7 1560 7
l1553 0 0 -260z m0 -1555 l0 -1035 -1560 0 -1560 0 0 1035 0 1035 1560 0 1560
0 0 -1035z"/>
<path d="M2974 3790 c-31 -12 -72 -66 -79 -104 -9 -45 16 -101 57 -126 85 -52
198 7 198 104 0 94 -92 160 -176 126z"/>
<path d="M3364 3791 c-11 -5 -32 -23 -47 -40 -77 -92 -13 -218 106 -208 68 6
108 46 114 114 4 54 -9 86 -48 115 -30 22 -94 32 -125 19z"/>
<path d="M3750 3783 c-40 -21 -80 -75 -80 -110 0 -115 142 -176 222 -96 100
101 -17 270 -142 206z"/>
<path d="M1579 2498 c-198 -187 -225 -219 -240 -272 -19 -70 5 -103 258 -342
l162 -154 50 0 c59 0 103 31 121 86 23 67 10 88 -142 241 l-142 143 141 142
c85 87 144 154 148 171 12 47 -3 93 -41 126 -29 26 -43 31 -85 31 l-50 0 -180
-172z"/>
<path d="M2607 2652 c-22 -13 -71 -102 -218 -391 -117 -232 -189 -385 -189
-403 0 -104 130 -169 208 -104 19 17 89 145 217 398 179 356 187 375 180 413
-5 25 -21 53 -41 73 -27 27 -39 32 -80 32 -29 0 -61 -7 -77 -18z"/>
<path d="M3128 2654 c-51 -27 -75 -113 -47 -167 6 -12 70 -82 142 -154 l132
-133 -132 -132 c-72 -73 -136 -143 -142 -155 -16 -31 -14 -89 4 -123 20 -39
63 -60 121 -60 l48 0 194 193 c106 105 200 204 208 219 18 35 18 82 0 116 -18
32 -372 385 -403 401 -30 15 -93 13 -125 -5z"/>
</g>
</svg>
